#!OML:ASF F:\VICON\USERDATA\INSTALL\rory3\rory3.ASF
:FULLY-SPECIFIED
:DEGREES
77
root 0.4117529280254648 17.590267282219394 28.27328486662313 -1.8574052905603713 0.34185066966515754 1.7727365310610268
lfemur 11.114387452739427 -3.8943878058561663 -26.77963076660011
ltibia 27.199730170886593
lfoot -5.0817396247111475 -4.595317118732445
ltoes -5.307126738392634
rfemur -23.41714270486664 5.782544970084693 19.652481959005918
rtibia 33.394997752933726
rfoot -6.601888587587869 -6.539121074358215
rtoes 3.7844286039334665
lowerback 10.00395761905979 -0.5685485568642756 -2.2938585941952803
upperback 0.6359911360153697 -1.4886598889812164 1.4379574747462687
thorax -4.651251100112461 -0.279048635996157 3.020385944305528
lowerneck -16.125157127985638 -2.7817744758151344 -2.213692052222396
upperneck 21.123548867886075 -3.3468019060750667 1.0763290037104731
head 9.297378149159229 -1.6974812519400877 0.12225271093535345
lclavicle -1.3860207461538578e-15 -1.8423909078331172e-15
lhumerus -22.92112403387641 -2.3337904505338827 81.61667114607494
lradius 25.410273455033128
lwrist 4.8994114458819435
lhand -26.94796032584586 24.42049625519006
lfingers 7.125019999999999
lthumb -0.6164693354341805 54.04293817573966
rclavicle -1.3880244278060646e-15 -1.8442527671761496e-15
rhumerus -35.981890210446444 -30.325846030879877 -70.79455636875194
rradius 23.778597891465274
rwrist 7.935411954610026
rhand -18.468002726737165 22.568529329613508
rfingers 7.125019999999999
rthumb 7.888939947735377 -7.160051079923952
78
root 0.32144438746611415 17.566937321952846 29.250725735909484 -2.023514031033515 0.27543627957782335 1.168972949741148
lfemur 12.205504343335283 -5.138768099862567 -26.26057800423616
ltibia 29.534143622291005
lfoot -5.3226615261155725 -4.536253810795471
ltoes -5.578215395556542
rfemur -23.028246178312223 5.896901264775153 20.27168458113114
rtibia 32.909532960576456
rfoot -6.739831364584118 -6.6409565557365315
rtoes 4.341289840216431
lowerback 9.833134934730216 -0.604027646074502 -2.0050868606588974
upperback 0.5821635540396188 -1.4741153918154883 1.595586528872702
thorax -4.6544485203404395 -0.2770643882333403 2.88752944895242
lowerneck -16.11566749831497 -2.748475690215942 -2.1872044504579398
upperneck 21.144361711309976 -3.2720513030819083 1.0660744053143838
head 9.303321942624697 -1.688754013751517 0.12656249175504292
lclavicle -1.3860207461539046e-15 -1.8423909078331606e-15
lhumerus -23.726121394836124 -1.5017081748600285 81.88357020054636
lradius 24.81548252013927
lwrist 4.57816445883323
lhand -26.89369855079559 24.54524823184531
lfingers 7.125019999999999
lthumb -0.4395453062652796 54.38038642105832
rclavicle -1.3880244278061128e-15 -1.844252767176194e-15
rhumerus -36.719261343320085 -31.527186518474814 -69.53453232426394
rradius 23.65865187174136
rwrist 8.316793968532297
rhand -18.47558626985551 22.545662335551455
rfingers 7.125019999999999
rthumb 7.915604983333671 -7.129422800344445
79
root 0.2358009516607778 17.579558021931387 30.28119280855246 -2.3113032810558476 0.15359646789369052 0.24795771448152193
lfemur 12.833803545236576 -6.597805338157325 -25.35185257604859
ltibia 33.154513075293195
lfoot -5.37200387179829 -4.072684459932563
ltoes -5.761527443773039
rfemur -21.965965885147163 5.792944158014819 21.52813454838334
rtibia 33.23221768979419
rfoot -7.235275291734615 -6.632261725077777
rtoes 4.549041713408327
lowerback 9.723574134236808 -0.5648246870923621 -1.3805791403129763
upperback 0.545524846036413 -1.3012771440841249 1.8121685408191703
thorax -4.671148933451015 -0.22616445751824488 2.7238865378923807
lowerneck -16.139278903161888 -2.7334737199603247 -2.1785925250840186
upperneck 21.174783163584504 -3.1933234505315022 1.0783971738107687
head 9.29149869232422 -1.693307494705568 0.1155278925285822
lclavicle -1.386020746153909e-15 -1.8423909078331645e-15
lhumerus -24.832631395250495 -0.6872171793713537 82.217463397685
lradius 24.224101358701503
lwrist 4.046993353052469
lhand -26.969409415187165 24.39672161472826
lfingers 7.125019999999999
lthumb -0.5526252028959567 54.16378294316722
rclavicle -1.3880244278061571e-15 -1.8442527671762355e-15
rhumerus -37.362680019785046 -32.64329039800428 -68.48339886967237
rradius 23.56181347621873
rwrist 8.779950740112294
rhand -18.445025369009034 22.58793042733551
rfingers 7.125019999999999
rthumb 7.931903349122053 -7.109307482051339
80
root 0.15371573669032573 17.621577148086406 31.12912011717352 -2.6807314964165068 0.023709561947609314 -0.9010199517261188
lfemur 11.55140053314049 -6.624623738094966 -23.773189731941095
ltibia 37.647297662860005
lfoot -5.650485899879616 -4.027293058423096
ltoes -5.688910567856114
rfemur -20.70948311241708 5.789916189572289 22.92052607188522
rtibia 33.81621023349113
rfoot -7.888844180175982 -6.4761095979076195
rtoes 4.541567987301704
lowerback 9.613175702378744 -0.5533804307285077 -0.7967941337979683
upperback 0.5035366244544399 -1.1192327028977114 1.992207957822837
thorax -4.69684459803375 -0.146519687401849 2.4889616280094593
lowerneck -16.115145305999988 -2.7135368354077 -2.1420380626599145
upperneck 21.1117220024247 -3.161162107623308 1.0367635371381105
head 9.279645317714028 -1.7007669842590065 0.10769500890160527
lclavicle -1.3860207461538955e-15 -1.842390907833152e-15
lhumerus -26.103449774720293 -0.060337377884903454 82.56863351736949
lradius 23.71764758744262
lwrist 3.6176283463826273
lhand -26.886933237063925 24.550444994026403
lfingers 7.125019999999999
lthumb -0.363264622416243 54.518238410719
rclavicle -1.388024427806144e-15 -1.8442527671762233e-15
rhumerus -37.607120557103414 -33.17079888901887 -67.92859584588962
rradius 23.432278835274193
rwrist 9.213589162723075
rhand -18.43653979548827 22.612166777222505
rfingers 7.125019999999999
rthumb 7.892568167918573 -7.174305215238146
